<svg width="440" height="440" viewBox="0 0 440 440" fill="none" xmlns="http://www.w3.org/2000/svg">
<rect width="440" height="440" rx="23.7838" fill="black"/>
<path d="M258.646 271.591H258.163V162.148H290.85C322.411 162.148 342.056 184.509 342.056 214.586C342.056 233.483 335.132 249.703 323.216 259.938L354.616 278.363C371.201 262.143 380.541 239.467 380.541 214.744C380.541 168.604 345.759 130.811 290.85 130.811H220V303.243H258.485V271.749L258.646 271.591Z" fill="white"/>
<path d="M214.054 184.795C214.054 155.421 188.216 130.811 149.95 130.811H116.754V160.82H143.409C162.379 160.82 175.297 170.664 175.297 185.43C175.297 202.737 162.379 214.328 143.409 214.328H116.754H65.4054V303.243H103.671V244.178H134.906L170.228 303.243H213.891L175.297 239.415C199.173 230.523 214.054 209.406 214.054 184.795Z" fill="white"/>
</svg>
